<svg width="359" height="269" viewBox="0 0 359 269" fill="none" xmlns="http://www.w3.org/2000/svg">
<path d="M199.716 0H358.193L291.833 161.26C287.14 172.684 270.769 172.684 266.057 161.26L199.716 0Z" fill="black" fill-opacity="1"/>
<path d="M181.219 201.364C181.219 219.889 173.601 236.629 161.309 248.826C148.998 260.949 131.993 268.473 113.238 268.473H0V123.199C26.9127 124.744 51.814 128.626 74.7411 134.237C114.095 143.803 147.601 158.391 175.52 174.45C179.189 182.692 181.237 191.779 181.237 201.345L181.219 201.364Z" fill="black" fill-opacity="1"/>
<path d="M181.239 67.1277C181.239 85.6525 173.621 102.43 161.348 114.571C157.79 118.085 153.805 121.212 149.54 123.843C110.856 114.387 61.78 109.365 0.00170898 113.339V0.000396729H113.259C150.788 0.000396729 181.22 30.0596 181.22 67.1277H181.239Z" fill="black" fill-opacity="1"/>
<path d="M278.944 268.473C296.153 268.473 310.103 254.694 310.103 237.696C310.103 220.699 296.153 206.92 278.944 206.92C261.735 206.92 247.785 220.699 247.785 237.696C247.785 254.694 261.735 268.473 278.944 268.473Z" fill="black" fill-opacity="1"/>
</svg>
