<svg width="36" height="36" viewBox="0 0 36 36" fill="none" xmlns="http://www.w3.org/2000/svg">
<g filter="url(#filter0_i_848_60650)">
<path fill-rule="evenodd" clip-rule="evenodd" d="M25.8909 21.5415C25.4479 21.32 23.2758 20.2525 22.8714 20.1039C22.4671 19.9567 22.1727 19.8838 21.8768 20.3269C21.5825 20.7669 20.7365 21.763 20.4793 22.0574C20.2207 22.3532 19.9635 22.3889 19.5219 22.1689C19.0804 21.9459 17.6561 21.4805 15.9687 19.976C14.6559 18.8045 13.7684 17.3579 13.5112 16.9149C13.254 16.4733 13.4829 16.234 13.7044 16.0139C13.9037 15.8162 14.146 15.4981 14.3675 15.2409C14.589 14.9822 14.6619 14.7978 14.8091 14.502C14.9577 14.2076 14.8834 13.9504 14.7719 13.7289C14.6619 13.5074 13.7788 11.3323 13.4101 10.4477C13.0518 9.58692 12.6875 9.70437 12.4169 9.6895C12.1583 9.67761 11.8639 9.67463 11.5695 9.67463C11.2752 9.67463 10.7964 9.78465 10.3921 10.2277C9.98619 10.6692 8.84589 11.7382 8.84589 13.9132C8.84589 16.0868 10.4277 18.1875 10.6493 18.4834C10.8708 18.7777 13.7639 23.2408 18.1958 25.1542C19.2513 25.6091 20.0735 25.8812 20.7142 26.0834C21.7728 26.4209 22.7362 26.3733 23.4973 26.2588C24.3448 26.1324 26.111 25.1899 26.4797 24.1581C26.8469 23.1263 26.8469 22.2417 26.7369 22.0574C26.6269 21.873 26.3325 21.763 25.8895 21.5415H25.8909ZM17.83 32.5476H17.8241C15.1918 32.548 12.6078 31.8404 10.343 30.4989L9.80778 30.1807L4.24454 31.6407L5.72976 26.2172L5.38038 25.6612C3.90875 23.3186 3.12995 20.6075 3.13397 17.8411C3.13694 9.73856 9.72899 3.14652 17.836 3.14652C21.7609 3.14652 25.4509 4.67782 28.2251 7.45498C29.5934 8.81767 30.6779 10.4382 31.4159 12.2227C32.1539 14.0072 32.5308 15.9204 32.5246 17.8515C32.5216 25.954 25.9296 32.5476 17.83 32.5476V32.5476ZM30.3362 5.34535C28.6981 3.69648 26.7491 2.3891 24.6021 1.49895C22.4551 0.608808 20.1528 0.153608 17.8285 0.159729C8.08469 0.159729 0.151644 8.09129 0.14867 17.8396C0.147184 20.9557 0.960411 23.9975 2.50807 26.6781L0 35.8406L9.37218 33.3816C11.9648 34.7942 14.8701 35.5343 17.8226 35.5344H17.83C27.5739 35.5344 35.5069 27.6028 35.5099 17.853C35.5171 15.5297 35.0635 13.228 34.1755 11.0811C33.2874 8.9342 31.9825 6.9847 30.3362 5.34535" fill="white"/>
</g>
<defs>
<filter id="filter0_i_848_60650" x="0" y="0.159668" width="35.5117" height="39.6812" filterUnits="userSpaceOnUse" color-interpolation-filters="sRGB">
<feFlood flood-opacity="0" result="BackgroundImageFix"/>
<feBlend mode="normal" in="SourceGraphic" in2="BackgroundImageFix" result="shape"/>
<feColorMatrix in="SourceAlpha" type="matrix" values="0 0 0 0 0 0 0 0 0 0 0 0 0 0 0 0 0 0 127 0" result="hardAlpha"/>
<feOffset dy="4"/>
<feGaussianBlur stdDeviation="7.5"/>
<feComposite in2="hardAlpha" operator="arithmetic" k2="-1" k3="1"/>
<feColorMatrix type="matrix" values="0 0 0 0 0 0 0 0 0 0 0 0 0 0 0 0 0 0 0.2 0"/>
<feBlend mode="normal" in2="shape" result="effect1_innerShadow_848_60650"/>
</filter>
</defs>
</svg>
